<svg width="92" height="91" viewBox="0 0 92 91" fill="none" xmlns="http://www.w3.org/2000/svg">
<g filter="url(#filter0_d_115_71)">
<path d="M6 83C4.89543 83 4 82.1046 4 81L4 2C4 0.895432 4.89543 0 6 0H22.0031C23.1076 0 24.0031 0.895432 24.0031 2L24.0031 81C24.0031 82.1046 23.1076 83 22.0031 83H6Z" fill="#F8F8F8"/>
<path d="M69.9968 83C68.8923 83 67.9968 82.1046 67.9968 81V2C67.9968 0.895432 68.8923 0 69.9968 0H85.9999C87.1045 0 87.9999 0.895432 87.9999 2V81C87.9999 82.1046 87.1045 83 85.9999 83H69.9968Z" fill="#F8F8F8"/>
<path d="M38 83C36.8954 83 36 82.1046 36 81L36 2C36 0.895432 36.8954 0 38 0H54.0031C55.1076 0 56.0031 0.895432 56.0031 2V81C56.0031 82.1046 55.1076 83 54.0031 83H38Z" fill="#F8F8F8"/>
</g>
<defs>
<filter id="filter0_d_115_71" x="0" y="0" width="92" height="91" filterUnits="userSpaceOnUse" color-interpolation-filters="sRGB">
<feFlood flood-opacity="0" result="BackgroundImageFix"/>
<feColorMatrix in="SourceAlpha" type="matrix" values="0 0 0 0 0 0 0 0 0 0 0 0 0 0 0 0 0 0 127 0" result="hardAlpha"/>
<feOffset dy="4"/>
<feGaussianBlur stdDeviation="2"/>
<feComposite in2="hardAlpha" operator="out"/>
<feColorMatrix type="matrix" values="0 0 0 0 0 0 0 0 0 0 0 0 0 0 0 0 0 0 0.25 0"/>
<feBlend mode="normal" in2="BackgroundImageFix" result="effect1_dropShadow_115_71"/>
<feBlend mode="normal" in="SourceGraphic" in2="effect1_dropShadow_115_71" result="shape"/>
</filter>
</defs>
</svg>
