<svg width="91" height="91" viewBox="0 0 91 91" fill="none" xmlns="http://www.w3.org/2000/svg">
<g filter="url(#filter0_d_115_127)">
<path d="M4 2C4 0.895432 4.89543 0 6 0H85C86.1046 0 87 0.895431 87 2V18.0031C87 19.1076 86.1046 20.0031 85 20.0031H6C4.89543 20.0031 4 19.1076 4 18.0031V2Z" fill="#1B1B23"/>
<path d="M4 64.9968C4 63.8923 4.89543 62.9968 6 62.9968H85C86.1046 62.9968 87 63.8923 87 64.9968V80.9999C87 82.1045 86.1046 82.9999 85 82.9999H6C4.89543 82.9999 4 82.1045 4 80.9999V64.9968Z" fill="#1B1B23"/>
<path d="M4 33C4 31.8954 4.89543 31 6 31H85C86.1046 31 87 31.8954 87 33V49.0031C87 50.1076 86.1046 51.0031 85 51.0031H6C4.89543 51.0031 4 50.1076 4 49.0031V33Z" fill="#1B1B23"/>
</g>
<defs>
<filter id="filter0_d_115_127" x="0" y="0" width="91" height="91" filterUnits="userSpaceOnUse" color-interpolation-filters="sRGB">
<feFlood flood-opacity="0" result="BackgroundImageFix"/>
<feColorMatrix in="SourceAlpha" type="matrix" values="0 0 0 0 0 0 0 0 0 0 0 0 0 0 0 0 0 0 127 0" result="hardAlpha"/>
<feOffset dy="4"/>
<feGaussianBlur stdDeviation="2"/>
<feComposite in2="hardAlpha" operator="out"/>
<feColorMatrix type="matrix" values="0 0 0 0 0 0 0 0 0 0 0 0 0 0 0 0 0 0 0.25 0"/>
<feBlend mode="normal" in2="BackgroundImageFix" result="effect1_dropShadow_115_127"/>
<feBlend mode="normal" in="SourceGraphic" in2="effect1_dropShadow_115_127" result="shape"/>
</filter>
</defs>
</svg>
